<?xml version="1.0" encoding="UTF-8"?>
<svg id="Capa_2" data-name="Capa 2" xmlns="http://www.w3.org/2000/svg" viewBox="0 0 444.94 153.81">
  <defs>
    <style>
      .cls-1 {
        fill: #e01919;
        font-family: Humanist521BT-Bold, 'Humanst521 BT';
        font-size: 126.66px;
        font-weight: 700;
        stroke: #e01919;
        stroke-miterlimit: 10;
      }

      .cls-2 {
        fill: #009ee2;
      }
    </style>
  </defs>
  <g id="Capa_1-2" data-name="Capa 1">
    <g>
      <path class="cls-2" d="m15.99,83.94l39.16,1.36-36.05,12.4,38.76-6.2-26.97,17.18,32.46-9.86-20.5,19.36,27.21-13.75-15.09,22.76,23.58-18.69-9.66,24.42,19.44-21.06-2.25,24.17,12.54-23.2,4,24.34,4.78-25.05,14.55,29.14-4.39-31.86,18.02,21.54-9.01-26.11,9.01,5.15-3.47-9.43,9.31,4.71c.08,20.47.14,36.14.14,36.14,0,0,0,.25,0,.5-14.2,7.39-30.99,11.67-48.99,11.67C41.59,153.56.25,119.24.25,76.91S41.59.25,92.58.25c17.82,0,34.47,4.2,48.58,11.46,0,0,.06,14.98.14,35.04-1.04.63-8.4,5.11-8.63,5.25l5.83-12.79-12.78,7.45,11.33-28.89-19.93,24.7,2.39-31.09-12.81,28.43-5.53-32.2-3.6,31.6-14.9-29.63,4.59,30.82L61.2,7.29l17.72,35.65-34.43-25.5,24.4,31L31.88,28.42l30.79,25.55-43.07-14.75,38.18,21.48-44.41-5.91,41.27,13.75-43.89,1.8,42.96,6.56-37.72,7.03Z"/>
      <text class="cls-1" transform="translate(152.21 121.64)"><tspan x="0" y="0">Cepil</tspan></text>
    </g>
  </g>
</svg>