<?xml version="1.0" encoding="UTF-8"?>
<svg id="Capa_2" data-name="Capa 2" xmlns="http://www.w3.org/2000/svg" viewBox="0 0 141.82 153.81">
  <defs>
    <style>
      .cls-1 {
        fill: #009ee2;
      }
    </style>
  </defs>
  <g id="Capa_1-2" data-name="Capa 1">
    <path class="cls-1" d="m141.56,141.39s0,.25,0,.5c-14.2,7.39-30.99,11.67-48.99,11.67C41.59,153.56.25,119.24.25,76.9S41.59.25,92.58.25c17.82,0,34.47,4.19,48.58,11.46,0,0,.06,14.99.14,35.04-1.04.64-8.4,5.12-8.63,5.26l5.83-12.79-12.78,7.45,11.32-28.89-19.93,24.7,2.39-31.09-12.81,28.43-5.53-32.2-3.6,31.6-14.9-29.64,4.59,30.83L61.19,7.29l17.72,35.65-34.43-25.5,24.39,31.01L31.88,28.42l30.79,25.55-43.07-14.75,38.19,21.48-44.41-5.91,41.27,13.76-43.89,1.8,42.96,6.56-37.72,7.04,39.16,1.36-36.05,12.4,38.77-6.2-26.98,17.17,32.46-9.86-20.5,19.36,27.21-13.75-15.09,22.76,23.59-18.69-9.67,24.42,19.44-21.05-2.24,24.17,12.53-23.19,4.01,24.34,4.78-25.05,14.55,29.14-4.39-31.86,18.02,21.54-9.01-26.11,9.01,5.15-3.47-9.43,9.31,4.71c.08,20.47.14,36.13.14,36.13Z"/>
  </g>
</svg>